<?xml version="1.0" encoding="UTF-8"?>
<svg width="24px" height="24px" viewBox="0 0 24 24" version="1.1" xmlns="http://www.w3.org/2000/svg" xmlns:xlink="http://www.w3.org/1999/xlink">
    <!-- Generator: Sketch 59.1 (86144) - https://sketch.com -->
    <title>ic_bat</title>
    <desc>Created with Sketch.</desc>
    <g id="ic_bat" stroke="none" stroke-width="1" fill="none" fill-rule="evenodd">
        <path d="M21.919226,2.06308249 L21.9157241,8.70600746 L22.1933377,12.014486 C22.664189,17.6258862 18.4969508,22.5565252 12.8855506,23.0273765 C12.6019894,23.0511701 12.3175565,23.0630825 12.0329989,23.0630825 C6.40231922,23.0630825 1.83775148,18.4985148 1.83775148,12.8678351 C1.83775148,12.5830059 1.84968758,12.2983018 1.87352836,12.0144722 L2.14677176,8.80337479 L2.14677176,2.06308249 C2.14677176,1.17377819 3.2206078,0.726889998 3.85152605,1.35363102 L9.0354956,6.50327819 C10.8606915,5.99465527 12.7839894,5.96067778 14.6228103,6.40183376 L15.0154838,6.50363981 L20.2154736,1.35263721 C20.8467929,0.727265319 21.919226,1.17445767 21.919226,2.06308249 Z M19.919226,4.46122982 L15.9971927,8.3463151 C15.7290057,8.61197562 15.3340756,8.70397495 14.9760965,8.58418037 L14.9242979,8.56684645 C13.0267576,7.93185118 10.9732291,7.93734016 9.07911053,8.58247035 C8.71947288,8.70496168 8.3214861,8.61307541 8.05194741,8.3453213 L4.14553672,4.46477443 L4.14326259,8.88707682 L3.86651002,12.1818762 C3.84734608,12.4100271 3.83775148,12.6388808 3.83775148,12.8678351 C3.83775148,17.3939453 7.50688872,21.0630825 12.0329989,21.0630825 C12.2617393,21.0630825 12.4903794,21.0535067 12.7183187,21.0343804 C17.2290176,20.6558887 20.5788333,16.6924167 20.2003416,12.1817178 L19.919226,8.78962338 L19.919226,4.46122982 Z M15,16 C15.5522847,16 16,16.4477153 16,17 C16,17.5522847 15.5522847,18 15,18 L15,18 L14.9932723,18.1166211 C14.9355072,18.6139598 14.5128358,19 14,19 C13.4477153,19 13,18.5522847 13,18 L13,18 L11,18 C11,18.5522847 10.5522847,19 10,19 C9.44771525,19 9,18.5522847 9,18 L9,18 L8.88337887,17.9932723 C8.38604019,17.9355072 8,17.5128358 8,17 C8,16.4477153 8.44771525,16 9,16 L9,16 Z M8.5,10 C9.88071187,10 11,11.1192881 11,12.5 C11,13.8807119 9.88071187,15 8.5,15 C7.11928813,15 6,13.8807119 6,12.5 C6,11.1192881 7.11928813,10 8.5,10 Z M15.5,10 C16.8807119,10 18,11.1192881 18,12.5 C18,13.8807119 16.8807119,15 15.5,15 C14.1192881,15 13,13.8807119 13,12.5 C13,11.1192881 14.1192881,10 15.5,10 Z M8.5,12 C8.22385763,12 8,12.2238576 8,12.5 C8,12.7761424 8.22385763,13 8.5,13 C8.77614237,13 9,12.7761424 9,12.5 C9,12.2238576 8.77614237,12 8.5,12 Z M15.5,12 C15.2238576,12 15,12.2238576 15,12.5 C15,12.7761424 15.2238576,13 15.5,13 C15.7761424,13 16,12.7761424 16,12.5 C16,12.2238576 15.7761424,12 15.5,12 Z" id="Combined-Shape" fill="#000000" fill-rule="nonzero"></path>
    </g>
</svg>