<?xml version="1.0" encoding="UTF-8"?>
<svg width="24px" height="24px" viewBox="0 0 24 24" version="1.1" xmlns="http://www.w3.org/2000/svg" xmlns:xlink="http://www.w3.org/1999/xlink">
    <!-- Generator: Sketch 59.1 (86144) - https://sketch.com -->
    <title>ic_candle</title>
    <desc>Created with Sketch.</desc>
    <g id="ic_candle" stroke="none" stroke-width="1" fill="none" fill-rule="evenodd">
        <path d="M21.5216294,3.61206972 C22.0120198,3.35803085 22.6154989,3.54963159 22.8695378,4.04002194 C23.1235767,4.53041229 22.9319759,5.13389141 22.4415856,5.38793028 L22.4415856,5.38793028 L22.2794543,5.47919542 C21.4886633,5.96129697 21,6.82322052 21,7.75825523 L21,7.75825523 L21,17.5 C21,17.5865684 20.9889999,17.6705677 20.9683213,17.7506762 C20.9890926,17.8301412 21,17.9137968 21,18 C21,20.7614237 18.7614237,23 16,23 L8,23 C5.23857625,23 3,20.7614237 3,18 C3,17.4477153 3.44771525,17 4,17 L8,17 L8,9 C8,8.44771525 8.44771525,8 9,8 L15,8 C15.5522847,8 16,8.44771525 16,9 L16,17 L19,17 L19,7.75825523 C19,6.0895019 19.8898108,4.55387727 21.3228766,3.72120525 Z M18.8292943,19 L5.17070571,19 C5.58254212,20.1651924 6.69378117,21 8,21 L16,21 C17.2409079,21 18.3058465,20.2465861 18.7623364,19.1722379 L18.8292943,19 Z M14,10 L10,10 L10,17 L14,17 L14,10 Z M12.6878773,1.27417301 C14.2079212,2.71474183 15,3.90285997 15,5 C15,6.65685425 13.6568542,8 12,8 C10.3431458,8 9,6.65685425 9,5 C9,3.90285997 9.79207876,2.71474183 11.3121227,1.27417301 C11.6978546,0.908608996 12.3021454,0.908608996 12.6878773,1.27417301 Z M12,3.42132951 L11.8501296,3.58811641 C11.275611,4.24177694 11,4.7319626 11,5 C11,5.55228475 11.4477153,6 12,6 C12.5522847,6 13,5.55228475 13,5 C13,4.7319626 12.724389,4.24177694 12.1498704,3.58811641 L12,3.42132951 Z" id="Combined-Shape" fill="#000000" fill-rule="nonzero"></path>
    </g>
</svg>