<?xml version="1.0" encoding="UTF-8"?>
<svg width="24px" height="24px" viewBox="0 0 24 24" version="1.1" xmlns="http://www.w3.org/2000/svg" xmlns:xlink="http://www.w3.org/1999/xlink">
    <!-- Generator: Sketch 59.1 (86144) - https://sketch.com -->
    <title>ic_frankenstein</title>
    <desc>Created with Sketch.</desc>
    <g id="ic_frankenstein" stroke="none" stroke-width="1" fill="none" fill-rule="evenodd">
        <path d="M15.0855583,1 C17.8713583,1 20.2137257,2.89856027 20.88935,5.47237018 L21.5143571,5.12584272 C21.9971408,4.85762954 22.6059441,5.03157334 22.8741573,5.51435707 C23.1423705,5.9971408 22.9684267,6.60594409 22.4856429,6.87415728 L22.4856429,6.87415728 L21.0476614,7.67329529 C21.035384,7.78201357 21.0201304,7.89041745 21.0019109,7.99838451 L19.0330701,19.6655897 C18.7082137,21.5906645 17.0411272,23 15.088835,23 L8.911165,23 C6.95887278,23 5.29178631,21.5906645 4.96692992,19.6655897 L4.68678094,18.006 L3.85278094,18.47 L3.89442719,18.5527864 C4.12377435,19.0114807 3.96751387,19.5621719 3.54851397,19.8362552 L3.4472136,19.8944272 C2.9532351,20.1414164 2.35256206,19.9411921 2.10557281,19.4472136 L2.10557281,19.4472136 L1.10557281,17.4472136 C0.85858356,16.9532351 1.05880791,16.3525621 1.5527864,16.1055728 C2.0467649,15.8585836 2.64743794,16.0588079 2.89442719,16.5527864 L2.89442719,16.5527864 L2.95678094,16.679 L4.31435707,15.9258427 C4.32092555,15.9221936 4.32751737,15.9186263 4.33413133,15.9151405 L2.99808905,7.99838451 C2.44669651,4.73087318 4.64854584,1.63503991 7.91605717,1.08364738 C8.24593805,1.02797998 8.57989683,1 8.91444167,1 L15.0855583,1 Z M16.6666667,7.81707778 L14.9841247,9.2592566 C14.609635,9.5802478 14.0570317,9.5802478 13.682542,9.2592566 L13.682542,9.2592566 L12,7.81707778 L10.317458,9.2592566 C9.94296831,9.5802478 9.39036502,9.5802478 9.01587529,9.2592566 L9.01587529,9.2592566 L7.33333333,7.81707778 L5.29078094,9.567 L6.93904746,19.3327948 C7.10147566,20.2953323 7.93501889,21 8.911165,21 L15.088835,21 C16.0649811,21 16.8985243,20.2953323 17.0609525,19.3327948 L18.7087809,9.568 L16.6666667,7.81707778 Z M14.5,16 C15.0522847,16 15.5,16.4477153 15.5,17 C15.5,17.5522847 15.0522847,18 14.5,18 L14.5,18 L13,18 C12.4477153,18 12,17.5522847 12,17 C12,16.4477153 12.4477153,16 13,16 L13,16 Z M11,13 C11,13.5522847 10.5522847,14 10,14 C9.44771525,14 9,13.5522847 9,13 L9,13 L8.88337887,12.9932723 C8.38604019,12.9355072 8,12.5128358 8,12 C8,11.4477153 8.44771525,11 9,11 L9,11 L15,11 C15.5522847,11 16,11.4477153 16,12 C16,12.5522847 15.5522847,13 15,13 C15,13.5522847 14.5522847,14 14,14 C13.4477153,14 13,13.5522847 13,13 L13,13 Z M15.0855583,3 L8.91444167,3 C8.69141178,3 8.46877259,3.01865332 8.248852,3.05576492 C6.2099411,3.39983113 4.79343514,5.22999001 4.92188492,7.24912125 L6.68254196,5.7407434 C7.05703169,5.4197522 7.60963498,5.4197522 7.98412471,5.7407434 L7.98412471,5.7407434 L9.66666667,7.18292222 L11.3492086,5.7407434 C11.7236984,5.4197522 12.2763016,5.4197522 12.6507914,5.7407434 L12.6507914,5.7407434 L14.3333333,7.18292222 L16.0158753,5.7407434 C16.390365,5.4197522 16.9429683,5.4197522 17.317458,5.7407434 L17.317458,5.7407434 L19.0778089,7.24886779 C19.0829718,7.16604617 19.0855583,7.08305017 19.0855583,7 C19.0855583,4.790861 17.2946973,3 15.0855583,3 Z" id="Combined-Shape" fill="#000000" fill-rule="nonzero"></path>
    </g>
</svg>