<?xml version="1.0" encoding="UTF-8"?>
<svg width="24px" height="24px" viewBox="0 0 24 24" version="1.1" xmlns="http://www.w3.org/2000/svg" xmlns:xlink="http://www.w3.org/1999/xlink">
    <!-- Generator: Sketch 59.1 (86144) - https://sketch.com -->
    <title>ic_ghostly</title>
    <desc>Created with Sketch.</desc>
    <g id="ic_ghostly" stroke="none" stroke-width="1" fill="none" fill-rule="evenodd">
        <path d="M5,19.0054256 L5,20.8112669 C5.45922392,21.0464156 6.08560808,21.0370352 6.45621994,20.7504515 L6.45621994,20.7504515 L6.55210921,20.6692184 L6.6340314,20.5726517 C7.50896575,19.4259914 9.20776195,19.1297537 10.4783508,19.8720235 C10.7121268,20.008594 10.9234017,20.1763281 11.1402143,20.4101023 L11.1402143,20.4101023 L11.2834782,20.5823409 C11.5275784,20.9032786 12.0957739,21.0031266 12.5027709,20.7661231 C12.5197072,20.7562608 12.5360594,20.7459609 12.5512679,20.7358668 L12.5512679,20.7358668 L12.6421506,20.6679499 L12.7181038,20.5793432 C13.5762837,19.4389746 15.2550222,19.136492 16.5169942,19.8635999 C16.7561055,20.0013682 16.9718168,20.1719469 17.1909517,20.4092948 L17.1909517,20.4092948 L17.3324582,20.5803128 C17.4477237,20.7336302 17.617914,20.8562272 17.8262842,20.9327652 C18.199409,21.0698205 18.6330401,21.0383001 18.9694876,20.8446396 L18.9694876,20.8446396 L19,20.8257907 L19,19.0054256 L21,19.0054256 L21,21.7333139 L20.6963986,22.0279228 C20.5149338,22.2040127 20.1883887,22.450692 19.9672165,22.5779996 C19.1092119,23.0718705 18.0574307,23.1483238 17.1366981,22.8101227 C16.5757166,22.6040644 16.0871909,22.2521537 15.7667333,21.8235781 L15.7667333,21.8235781 L15.6926627,21.73308 C15.6451776,21.6820811 15.5865846,21.6357474 15.5185311,21.5965371 C15.1150441,21.3640608 14.5546366,21.4650376 14.2838395,21.8226342 L14.2838395,21.8226342 L14.1413508,21.9907207 C13.9586449,22.1873034 13.745449,22.3568731 13.5092091,22.4944409 C12.2459666,23.2300553 10.5590652,22.9336189 9.72215562,21.8312922 L9.72215562,21.8312922 L9.64462872,21.7369079 C9.59651766,21.6854894 9.53761801,21.6387282 9.4695005,21.5989344 C9.05447674,21.3564802 8.47449783,21.4576174 8.19653208,21.8203091 L8.19653208,21.8203091 L8.05757783,21.9851024 C7.94256008,22.1108806 7.81609074,22.2271022 7.67965421,22.3326047 C6.41142945,23.313287 4.43555834,23.1487573 3.29641549,22.0208792 L3.29641549,22.0208792 L3,21.7273949 L3,19.0054256 L5,19.0054256 Z M12,1 C16.954931,1 21,4.7606501 21,9.4375 L21,9.4375 L21,19 L19,19 L19,9.4375 C19,5.89911425 15.881625,3 12,3 C8.11837499,3 5,5.89911425 5,9.4375 L5,9.4375 L5,19 L3,19 L3,9.4375 C3,4.7606501 7.04506901,1 12,1 Z M12,11 C12.5522847,11 13,11.4477153 13,12 C13,12.5522847 12.5522847,13 12,13 C11.4477153,13 11,12.5522847 11,12 C11,11.4477153 11.4477153,11 12,11 Z M10,8 C10.5522847,8 11,8.44771525 11,9 C11,9.55228475 10.5522847,10 10,10 C9.44771525,10 9,9.55228475 9,9 C9,8.44771525 9.44771525,8 10,8 Z M14,8 C14.5522847,8 15,8.44771525 15,9 C15,9.55228475 14.5522847,10 14,10 C13.4477153,10 13,9.55228475 13,9 C13,8.44771525 13.4477153,8 14,8 Z" id="Combined-Shape" fill="#000000" fill-rule="nonzero"></path>
    </g>
</svg>