<?xml version="1.0" encoding="UTF-8"?>
<svg width="24px" height="24px" viewBox="0 0 24 24" version="1.1" xmlns="http://www.w3.org/2000/svg" xmlns:xlink="http://www.w3.org/1999/xlink">
    <!-- Generator: Sketch 59.1 (86144) - https://sketch.com -->
    <title>ic_ghost</title>
    <desc>Created with Sketch.</desc>
    <g id="ic_ghost" stroke="none" stroke-width="1" fill="none" fill-rule="evenodd">
        <path d="M12,1 C16.9705627,1 21,5.02943725 21,10 L21,12 C21,18.0751322 16.0751322,23 10,23 L4,23 C3.44771525,23 3,22.5522847 3,22 L3,10 C3,5.02943725 7.02943725,1 12,1 Z M12,3 C8.13400675,3 5,6.13400675 5,10 L5,21 L10,21 C14.9705627,21 19,16.9705627 19,12 L19,10 C19,6.13400675 15.8659932,3 12,3 Z M14,11 C14.5522847,11 15,11.4477153 15,12 C15,12.5522847 14.5522847,13 14,13 C13.4477153,13 13,12.5522847 13,12 C13,11.4477153 13.4477153,11 14,11 Z M16,8 C16.5522847,8 17,8.44771525 17,9 C17,9.55228475 16.5522847,10 16,10 C15.4477153,10 15,9.55228475 15,9 C15,8.44771525 15.4477153,8 16,8 Z M12,8 C12.5522847,8 13,8.44771525 13,9 C13,9.55228475 12.5522847,10 12,10 C11.4477153,10 11,9.55228475 11,9 C11,8.44771525 11.4477153,8 12,8 Z" id="Combined-Shape" fill="#000000" fill-rule="nonzero"></path>
    </g>
</svg>