<?xml version="1.0" encoding="UTF-8"?>
<svg width="24px" height="24px" viewBox="0 0 24 24" version="1.1" xmlns="http://www.w3.org/2000/svg" xmlns:xlink="http://www.w3.org/1999/xlink">
    <!-- Generator: Sketch 59.1 (86144) - https://sketch.com -->
    <title>ic_moon</title>
    <desc>Created with Sketch.</desc>
    <g id="ic_moon" stroke="none" stroke-width="1" fill="none" fill-rule="evenodd">
        <path d="M12.5,1 C13.4018083,1 14.2907848,1.09945021 15.1540996,1.29457323 C16.1733319,1.52493608 16.200829,2.96721067 15.191118,3.23625557 C12.1533147,4.04570053 10,6.80938936 10,10 C10,13.8659932 13.1340068,17 17,17 C18.6197187,17 20.1524805,16.4494391 21.3872447,15.454906 C22.2206541,14.7836417 23.3838086,15.7138761 22.9121514,16.6744522 C21.0303986,20.5068265 16.9972378,23 12.5,23 C6.15934346,23 1,18.0863396 1,12 C1,5.91366044 6.15934346,1 12.5,1 Z M11.2464091,3.0775916 L10.9786579,3.11469065 C6.44781934,3.8051513 3,7.52927958 3,12 C3,16.9593554 7.24267679,21 12.5,21 C14.82294,21 16.9906143,20.2034221 18.669441,18.8452085 C18.1245884,18.9474612 17.5662164,19 17,19 C12.0294373,19 8,14.9705627 8,10 C8,7.35341448 9.15199624,4.93568236 11.0189685,3.273405 L11.2464091,3.0775916 Z M18,10 C18.5522847,10 19,10.4477153 19,11 C19,11.5522847 18.5522847,12 18,12 C17.4477153,12 17,11.5522847 17,11 C17,10.4477153 17.4477153,10 18,10 Z M20,3.875 C20.5522847,3.875 21,4.32271525 21,4.875 L21,4.875 L21,5 C21.5522847,5 22,5.44771525 22,6 C22,6.55228475 21.5522847,7 21,7 L21,7 L21,7.125 C21,7.67728475 20.5522847,8.125 20,8.125 C19.4477153,8.125 19,7.67728475 19,7.125 L19,7.125 L19,7 C18.4477153,7 18,6.55228475 18,6 C18,5.44771525 18.4477153,5 19,5 L19,5 L19,4.875 C19,4.32271525 19.4477153,3.875 20,3.875 Z" id="Combined-Shape" fill="#000000" fill-rule="nonzero"></path>
    </g>
</svg>