<?xml version="1.0" encoding="UTF-8"?>
<svg width="24px" height="24px" viewBox="0 0 24 24" version="1.1" xmlns="http://www.w3.org/2000/svg" xmlns:xlink="http://www.w3.org/1999/xlink">
    <!-- Generator: Sketch 59.1 (86144) - https://sketch.com -->
    <title>ic_spider</title>
    <desc>Created with Sketch.</desc>
    <g id="ic_spider" stroke="none" stroke-width="1" fill="none" fill-rule="evenodd">
        <path d="M18.1055728,2.5527864 C18.3525621,2.05880791 18.9532351,1.85858356 19.4472136,2.10557281 L19.4472136,2.10557281 L21.4472136,3.10557281 C21.9411921,3.35256206 22.1414164,3.9532351 21.8944272,4.4472136 C21.6474379,4.94119209 21.0467649,5.14141644 20.5527864,4.89442719 L20.5527864,4.89442719 L19.4472136,4.34164079 L16.8944272,9.4472136 C16.8863922,9.46328362 16.8779829,9.47904275 16.8692151,9.49448572 C17.0417886,9.7325344 17.1977599,9.98598195 17.3345725,10.2509303 L19.2926742,8.29289322 C19.5970344,7.98853296 20.0620059,7.91307848 20.4469945,8.10557281 L22.4469945,9.10557281 C22.940973,9.35256206 23.1411974,9.9532351 22.8942081,10.4472136 C22.6472189,10.9411921 22.0465458,11.1414164 21.5525673,10.8944272 L20.197234,10.2167605 L17.9743151,12.4411183 C17.9797067,12.4994888 17.9842622,12.5581016 17.9879696,12.6169446 L19.6840435,12.0513167 C20.0433783,11.9315385 20.4395458,12.0250609 20.7073781,12.2928932 L22.7073781,14.2928932 C23.0979024,14.6834175 23.0979024,15.3165825 22.7073781,15.7071068 C22.3168538,16.0976311 21.6836888,16.0976311 21.2931645,15.7071068 L19.7301805,14.1441228 L17.7211176,14.8133208 C17.6180705,15.1387378 17.4880269,15.4521477 17.3336158,15.7509215 L20.5999891,18.2 C21.024576,18.5184402 21.1264374,19.1131031 20.8320394,19.5547002 L18.8320394,22.5547002 C18.5256869,23.0142289 17.9048176,23.1384028 17.4452889,22.8320503 C16.9857602,22.5256978 16.8615863,21.9048285 17.1679388,21.4452998 L18.6431999,19.2324081 L16.1326909,17.3498291 C15.05668,18.3724525 13.6016258,19 12,19 C10.3985072,19 8.94356169,18.3725567 7.8675772,17.3500838 L5.35678917,19.2324081 L6.83205029,21.4452998 C7.13840275,21.9048285 7.01422888,22.5256978 6.5547002,22.8320503 C6.09517151,23.1384028 5.47430216,23.0142289 5.16794971,22.5547002 L5.16794971,22.5547002 L3.16794971,19.5547002 C2.87355161,19.1131031 2.97541303,18.5184402 3.4,18.2 L3.4,18.2 L6.66638417,15.7509215 C6.51213171,15.4524545 6.3821966,15.1393814 6.2791999,14.8143232 L4.27009076,14.1441228 L2.70710678,15.7071068 C2.31658249,16.0976311 1.68341751,16.0976311 1.29289322,15.7071068 C0.902368927,15.3165825 0.902368927,14.6834175 1.29289322,14.2928932 L1.29289322,14.2928932 L3.29289322,12.2928932 C3.56072551,12.0250609 3.95689304,11.9315385 4.31622777,12.0513167 L4.31622777,12.0513167 L6.01203038,12.6169446 C6.01573776,12.5581016 6.02029331,12.4994888 6.02568494,12.4411183 L3.80254695,10.2167605 L2.4472136,10.8944272 C1.9532351,11.1414164 1.35256206,10.9411921 1.10557281,10.4472136 C0.85858356,9.9532351 1.05880791,9.35256206 1.5527864,9.10557281 L1.5527864,9.10557281 L3.5527864,8.10557281 C3.93777507,7.91307848 4.40274652,7.98853296 4.70710678,8.29289322 L4.70710678,8.29289322 L6.66542753,10.2509303 C6.80224009,9.98598195 6.9582114,9.7325344 7.13150913,9.49242002 C7.12201714,9.47904275 7.11360782,9.46328362 7.10557281,9.4472136 L4.5527864,4.34164079 L3.4472136,4.89442719 C2.9532351,5.14141644 2.35256206,4.94119209 2.10557281,4.4472136 C1.85858356,3.9532351 2.05880791,3.35256206 2.5527864,3.10557281 L4.5527864,2.10557281 C5.0467649,1.85858356 5.64743794,2.05880791 5.89442719,2.5527864 L8.63334567,8.03283204 C8.89012923,7.85844964 9.16114558,7.70345716 9.44429042,7.56995889 C9.16227308,7.11389616 9,6.57589853 9,6 C9,4.34314575 10.3431458,3 12,3 C13.6568542,3 15,4.34314575 15,6 C15,6.57589853 14.8377269,7.11389616 14.5564107,7.57076291 C14.8391309,7.70365212 15.1094729,7.85825474 15.3656553,8.03215378 Z M12,9 C9.790861,9 8,10.790861 8,13 C8,15.209139 9.790861,17 12,17 C14.209139,17 16,15.209139 16,13 C16,10.790861 14.209139,9 12,9 Z M12,5 C11.4477153,5 11,5.44771525 11,6 C11,6.55228475 11.4477153,7 12,7 C12.5522847,7 13,6.55228475 13,6 C13,5.44771525 12.5522847,5 12,5 Z" id="Combined-Shape" fill="#000000" fill-rule="nonzero"></path>
    </g>
</svg>