<?xml version="1.0" encoding="UTF-8"?>
<svg width="24px" height="24px" viewBox="0 0 24 24" version="1.1" xmlns="http://www.w3.org/2000/svg" xmlns:xlink="http://www.w3.org/1999/xlink">
    <!-- Generator: Sketch 59.1 (86144) - https://sketch.com -->
    <title>ic_tomb</title>
    <desc>Created with Sketch.</desc>
    <g id="ic_tomb" stroke="none" stroke-width="1" fill="none" fill-rule="evenodd">
        <path d="M2,23 C1.44771525,23 1,22.5522847 1,22 C1,21.4477153 1.44771525,21 2,21 L2,21 L3,20.9996309 L3,10 C3,5.02943725 7.02943725,1 12,1 C16.9705627,1 21,5.02943725 21,10 L21,20.9996309 L22,21 C22.5128358,21 22.9355072,21.3860402 22.9932723,21.8833789 L23,22 C23,22.5522847 22.5522847,23 22,23 L22,23 Z M12,3 C8.13400675,3 5,6.13400675 5,10 L5,21 L19,21 L19,10 C19,8.83635527 18.7160652,7.73902705 18.2136977,6.77351736 L14.9532878,9.54339297 L14.9532878,11 C14.9532878,11.2632771 14.8494619,11.5159328 14.6643421,11.7031371 L14.6643421,11.7031371 L14.637,11.7306309 L15.4402062,12.1529178 C15.7324865,12.3065492 15.9276591,12.5929414 15.9674223,12.9155842 L15.9749349,13.0380859 L15.9749349,15.1051432 C15.9749349,15.657428 15.5272196,16.1051432 14.9749349,16.1051432 C14.4226501,16.1051432 13.9749349,15.657428 13.9749349,15.1051432 L13.9749349,15.1051432 L13.9749349,13.6421844 L13.166,13.2166309 L12.1469517,14.2488728 C11.7884915,14.6113692 11.2214246,14.6422738 10.8274319,14.3394499 L10.7327603,14.25679 C10.3400559,13.8684581 10.3365112,13.235303 10.7248431,12.8425986 L10.7248431,12.8425986 L12.9532878,10.5890621 L12.9532878,9.08072917 C12.9532878,8.78723194 13.0822227,8.50855233 13.3059197,8.3185516 L13.3059197,8.3185516 L16.9330106,5.23782244 C16.9702324,5.2062075 17.0090972,5.17779006 17.0492707,5.15254285 C15.7761637,3.82582895 13.9845232,3 12,3 Z" id="Combined-Shape" fill="#000000" fill-rule="nonzero"></path>
    </g>
</svg>