<?xml version="1.0" encoding="UTF-8"?>
<svg width="24px" height="24px" viewBox="0 0 24 24" version="1.1" xmlns="http://www.w3.org/2000/svg" xmlns:xlink="http://www.w3.org/1999/xlink">
    <!-- Generator: Sketch 59.1 (86144) - https://sketch.com -->
    <title>ic_sarcophagus</title>
    <desc>Created with Sketch.</desc>
    <g id="ic_sarcophagus" stroke="none" stroke-width="1" fill="none" fill-rule="evenodd">
        <path d="M15.9999991,1 C16.3787721,1 16.7250352,1.21400238 16.8944272,1.5527864 L20.8944272,9.5527864 C21.0130356,9.79000324 21.0325521,10.0646213 20.9486833,10.3162278 L16.9486833,22.3162278 C16.8125693,22.7245699 16.4304304,23 15.9999991,23 L7.99999911,23 C7.56956959,23 7.18743075,22.7245699 7.0513167,22.3162278 L3.0513167,10.3162278 C2.96744788,10.0646213 2.98696439,9.79000324 3.10557281,9.5527864 L7.10557281,1.5527864 C7.27496482,1.21400238 7.62122794,1 7.99999911,1 L15.9999991,1 Z M15.381966,3 L8.61803399,3 L5.07966913,10.0767297 L8.72075922,21 L15.2792408,21 L18.9203309,10.0767297 L15.381966,3 Z M12,7 C12.5522847,7 13,7.44771525 13,8 L13,8 L12.9999991,9 L14,9 C14.5128358,9 14.9355072,9.38604019 14.9932723,9.88337887 L15,10 C15,10.5522847 14.5522847,11 14,11 L14,11 L12.9999991,11 L13,14 C13,14.5128358 12.6139598,14.9355072 12.1166211,14.9932723 L12,15 C11.4477153,15 11,14.5522847 11,14 L11,14 L10.9999991,11 L10,11 C9.48716416,11 9.06449284,10.6139598 9.00672773,10.1166211 L9,10 C9,9.44771525 9.44771525,9 10,9 L10,9 L10.9999991,9 L11,8 C11,7.48716416 11.3860402,7.06449284 11.8833789,7.00672773 Z" id="Combined-Shape" fill="#000000" fill-rule="nonzero"></path>
    </g>
</svg>