<?xml version="1.0" encoding="UTF-8"?>
<svg width="24px" height="24px" viewBox="0 0 24 24" version="1.1" xmlns="http://www.w3.org/2000/svg" xmlns:xlink="http://www.w3.org/1999/xlink">
    <!-- Generator: Sketch 59.1 (86144) - https://sketch.com -->
    <title>ic_ghost-2</title>
    <desc>Created with Sketch.</desc>
    <g id="ic_ghost-2" stroke="none" stroke-width="1" fill="none" fill-rule="evenodd">
        <path d="M12,1 C16.9643565,1 21,4.92354228 21,9.77777778 L21,9.77777778 L21.0009007,12.1710242 C22.1656226,12.5831148 23,13.6941178 23,15 C23,16.6568542 21.6568542,18 20,18 L20,18 L19.0260001,18.0011103 C17.3384181,21.3353114 13.888147,23 9.66524935,23 L9.66524935,23 L4,23 C3.44771525,23 3,22.5522847 3,22 L3,22 L3,9.77777778 C3,4.92354228 7.03564349,1 12,1 Z M12,3 C8.12780051,3 5,6.04091716 5,9.77777778 L5,9.77777778 L5,21 L9.66524935,21 C12.7786264,21 15.275238,19.9739454 16.7195536,17.959178 C16.3030673,17.8380009 16,17.454393 16,17 C16,16.4477153 16.4477153,16 17,16 L17,16 L20,16 C20.5522847,16 21,15.5522847 21,15 C21,14.4477153 20.5522847,14 20,14 L20,14 L19.0002136,14 C18.4479289,14 18.0002136,13.5522847 18.0002136,13 C18.0002136,12.4477153 18.4479289,12 19.0002136,12 L19.0002136,12 L19,9.77777778 C19,6.04091716 15.8721995,3 12,3 Z M12,12 C13.6568542,12 15,13.3431458 15,15 C15,16.6568542 13.6568542,18 12,18 L12,18 L10,18 C9.44771525,18 9,17.5522847 9,17 C9,16.4477153 9.44771525,16 10,16 L10,16 L12,16 C12.5522847,16 13,15.5522847 13,15 C13,14.4477153 12.5522847,14 12,14 L12,14 L10,14 C9.44771525,14 9,13.5522847 9,13 C9,12.4477153 9.44771525,12 10,12 L10,12 Z M12,8 C12.5522847,8 13,8.44771525 13,9 C13,9.55228475 12.5522847,10 12,10 C11.4477153,10 11,9.55228475 11,9 C11,8.44771525 11.4477153,8 12,8 Z M16,8 C16.5522847,8 17,8.44771525 17,9 C17,9.55228475 16.5522847,10 16,10 C15.4477153,10 15,9.55228475 15,9 C15,8.44771525 15.4477153,8 16,8 Z" id="Combined-Shape" fill="#000000" fill-rule="nonzero"></path>
    </g>
</svg>