<?xml version="1.0" encoding="UTF-8"?>
<svg width="24px" height="24px" viewBox="0 0 24 24" version="1.1" xmlns="http://www.w3.org/2000/svg" xmlns:xlink="http://www.w3.org/1999/xlink">
    <!-- Generator: Sketch 59.1 (86144) - https://sketch.com -->
    <title>ic_lollipop</title>
    <desc>Created with Sketch.</desc>
    <g id="ic_lollipop" stroke="none" stroke-width="1" fill="none" fill-rule="evenodd">
        <path d="M11,1 C16.5228475,1 21,5.4771525 21,11 C21,13.4008955 20.1538988,15.6041735 18.7436056,17.3279248 L23.0571068,21.6428932 C23.4476311,22.0334175 23.4476311,22.6665825 23.0571068,23.0571068 C22.6665825,23.4476311 22.0334175,23.4476311 21.6428932,23.0571068 L21.6428932,23.0571068 L17.3279248,18.7436056 C15.6041735,20.1538988 13.4008955,21 11,21 C5.4771525,21 1,16.5228475 1,11 C1,5.4771525 5.4771525,1 11,1 Z M11.480451,13.0071755 L11.4742139,13.0188953 C10.311636,15.2613375 8.02646852,16.7126374 5.52069297,16.8292981 C6.86402156,18.092607 8.64560906,18.8971997 10.6134229,18.9908238 L10.6638548,18.9408409 C12.2350993,17.3097041 12.4992206,14.8999194 11.480451,13.0071755 Z M13.1575125,11.7393397 L13.0608713,11.7424762 C14.3394415,13.8478826 14.4249562,16.4833513 13.2989845,18.6634143 C15.1445543,18.1121202 16.7104084,16.9105685 17.7312987,15.3249487 C17.2122476,13.1743723 15.2832916,11.7281174 13.1575125,11.7393397 Z M3.21270411,9.1610356 L3.1811133,9.29946465 C3.06247931,9.84750052 3,10.4164538 3,11 C3,12.3206571 3.32001175,13.5665714 3.88672247,14.6644302 L3.96516132,14.6858151 C6.16325746,15.2309516 8.3821183,14.2549449 9.51196081,12.4265049 C6.97724089,12.5452652 4.56700303,11.2851111 3.21270411,9.1610356 Z M18.117939,7.34341814 C15.8938614,6.67847474 13.5610491,7.74478145 12.5711702,9.76585726 C15.0773333,9.53558144 17.4683247,10.7425895 18.7956272,12.7985275 C18.9298209,12.2205271 19,11.6184592 19,11 C19,9.74954396 18.7131052,8.56609579 18.2015478,7.51188764 Z M8.65839509,3.34796474 L8.6068709,3.36408723 C6.80619893,3.92785119 5.2793534,5.11098235 4.27585555,6.66395949 L4.30077504,6.75706338 C4.94914842,9.00761477 7.01756052,10.4639504 9.25170829,10.4328419 C7.68601519,8.35206112 7.50157948,5.5853446 8.65839509,3.34796474 Z M11.3845756,3.00908122 L11.227807,3.16486227 C9.67990729,4.76528608 9.48983706,7.21842508 10.7061404,9.02797301 C11.7625621,6.73713767 14.0101284,5.2690761 16.4597828,5.15290182 C15.1178609,3.89900971 13.3434316,3.10179326 11.3845756,3.00908122 Z" id="Combined-Shape" fill="#111111" fill-rule="nonzero"></path>
    </g>
</svg>