<?xml version="1.0" encoding="UTF-8"?>
<svg width="24px" height="24px" viewBox="0 0 24 24" version="1.1" xmlns="http://www.w3.org/2000/svg" xmlns:xlink="http://www.w3.org/1999/xlink">
    <!-- Generator: Sketch 59.1 (86144) - https://sketch.com -->
    <title>ic_moon_full</title>
    <desc>Created with Sketch.</desc>
    <g id="ic_moon_full" stroke="none" stroke-width="1" fill="none" fill-rule="evenodd">
        <path d="M12,1 C18.0751322,1 23,5.92486775 23,12 C23,18.0751322 18.0751322,23 12,23 C5.92486775,23 1,18.0751322 1,12 C1,5.92486775 5.92486775,1 12,1 Z M12,3 C7.02943725,3 3,7.02943725 3,12 C3,16.9705627 7.02943725,21 12,21 C16.9705627,21 21,16.9705627 21,12 C21,7.02943725 16.9705627,3 12,3 Z M9.5,12 C11.4329966,12 13,13.5670034 13,15.5 C13,17.4329966 11.4329966,19 9.5,19 C7.56700338,19 6,17.4329966 6,15.5 C6,13.5670034 7.56700338,12 9.5,12 Z M9.5,14 C8.67157288,14 8,14.6715729 8,15.5 C8,16.3284271 8.67157288,17 9.5,17 C10.3284271,17 11,16.3284271 11,15.5 C11,14.6715729 10.3284271,14 9.5,14 Z M16.5,10 C17.8807119,10 19,11.1192881 19,12.5 C19,13.8807119 17.8807119,15 16.5,15 C15.1192881,15 14,13.8807119 14,12.5 C14,11.1192881 15.1192881,10 16.5,10 Z M16.5,12 C16.2238576,12 16,12.2238576 16,12.5 C16,12.7761424 16.2238576,13 16.5,13 C16.7761424,13 17,12.7761424 17,12.5 C17,12.2238576 16.7761424,12 16.5,12 Z M14,6 C14.5522847,6 15,6.44771525 15,7 C15,7.55228475 14.5522847,8 14,8 C13.4477153,8 13,7.55228475 13,7 C13,6.44771525 13.4477153,6 14,6 Z" id="Combined-Shape" fill="#000000" fill-rule="nonzero"></path>
    </g>
</svg>