<?xml version="1.0" encoding="UTF-8"?>
<svg width="24px" height="24px" viewBox="0 0 24 24" version="1.1" xmlns="http://www.w3.org/2000/svg" xmlns:xlink="http://www.w3.org/1999/xlink">
    <!-- Generator: Sketch 59.1 (86144) - https://sketch.com -->
    <title>ic_mummy</title>
    <desc>Created with Sketch.</desc>
    <g id="ic_mummy" stroke="none" stroke-width="1" fill="none" fill-rule="evenodd">
        <path d="M12,1 C16.7543405,1 20.608495,4.8541545 20.608495,9.60849501 C20.608495,10.0884829 20.5683508,10.56763 20.488482,11.0409264 L19.5470442,16.6198168 C18.9254521,20.3033258 15.7355876,23 12,23 C8.26441236,23 5.07454789,20.3033258 4.45295576,16.6198168 L3.51151799,11.0409264 C2.720408,6.35286719 5.8795095,1.91112299 10.5675687,1.120013 C11.040865,1.04014425 11.5200121,1 12,1 Z M17.3687794,17.1200479 L7.49638928,18.7649137 C8.53709439,20.1343676 10.1809586,21 12,21 C14.4691626,21 16.6155563,19.4050475 17.3687794,17.1200479 Z M11.6451407,13.06 L10.6101041,13.2076167 C10.8472376,13.3904707 11,13.6773956 11,14 C11,14.5522847 10.5522847,15 10,15 C9.44771525,15 9,14.5522847 9,14 C9,13.7792634 9.0715195,13.5752311 9.19265002,13.4098115 L6.01514072,13.864 L6.4250733,16.287022 C6.45990034,16.4934045 6.50564181,16.6955932 6.56164576,16.8930369 L14.2031407,15.618 L11.6451407,13.06 Z M18.2791407,12.112 L14.1201407,12.706 L16.6281407,15.214 L17.7881407,15.021 L18.2791407,12.112 Z M5.48363553,10.7081315 L5.68314072,11.892 L18.5938169,10.0487053 C18.6035955,9.9022337 18.608495,9.75541567 18.608495,9.60849501 C18.608495,9.39392281 18.5982687,9.1817391 18.5782768,8.97240466 L5.57779134,8.04331888 C5.37082471,8.89075826 5.32926382,9.79333621 5.48363553,10.7081315 Z M12,3 C11.631527,3 11.2636995,3.03081759 10.9003635,3.09213054 C8.96505646,3.41871361 7.36916652,4.55570999 6.40173505,6.09672316 L18.0424344,6.92837979 C17.0143704,4.6140138 14.6956718,3 12,3 Z" id="Combined-Shape" fill="#000000" fill-rule="nonzero"></path>
    </g>
</svg>