<?xml version="1.0" encoding="UTF-8"?>
<svg width="24px" height="24px" viewBox="0 0 24 24" version="1.1" xmlns="http://www.w3.org/2000/svg" xmlns:xlink="http://www.w3.org/1999/xlink">
    <!-- Generator: Sketch 59.1 (86144) - https://sketch.com -->
    <title>ic_pumpkin</title>
    <desc>Created with Sketch.</desc>
    <g id="ic_pumpkin" stroke="none" stroke-width="1" fill="none" fill-rule="evenodd">
        <path d="M15,1 C15.5522847,1 16,1.44771525 16,2 C16,2.55228475 15.5522847,3 15,3 L15,3 L13.5,3 C13.3777084,3 13.265671,3.04390351 13.1787896,3.11680869 C14.040298,3.28736651 14.8354,3.64351872 15.5210493,4.14125866 C15.9404943,4.04795431 16.3740357,4 16.8141907,4 C19.9865172,4 22.5742055,6.48516715 22.5742055,9.57142857 L22.5742055,9.57142857 L22.5742055,16.4285714 C22.5742055,19.5148329 19.9865172,22 16.8141907,22 C16.3744079,22 15.9411153,21.9521359 15.5207527,21.8588031 C14.5154811,22.5886438 13.2914607,23 12,23 C10.6623829,23 9.39703311,22.5587252 8.37196389,21.7796572 C7.85398111,21.9245664 7.31211231,22 6.76001487,22 C3.58768837,22 1,19.5148329 1,16.4285714 L1,9.57142857 C1,6.48516715 3.58768837,4 6.76001487,4 C7.3115543,4 7.85270961,4.0752956 8.37071027,4.22094614 C9.13549218,3.63974745 10.0451948,3.23702219 11.0361702,3.0770041 C11.2359856,1.89827968 12.2630906,1 13.5,1 L13.5,1 Z M12,5 C9.790861,5 8,6.790861 8,9 C8,9.55228475 7.55228475,10 7,10 C6.44771525,10 6,9.55228475 6,9 C6,7.90756863 6.29195295,6.88332652 6.80209059,6.00104192 C6.78882866,6.00007676 6.77442824,6 6.76001487,6 C4.67457412,6 3,7.60822943 3,9.57142857 L3,16.4285714 C3,18.3917706 4.67457412,20 6.76001487,20 C6.84618203,20 6.93188903,19.9972574 7.0170359,19.9918146 C7.02309636,19.6991296 7.15890443,19.4132307 7.40986658,19.2228126 C7.84983909,18.8889823 8.47713017,18.9750276 8.81096042,19.4150001 C9.56357843,20.4069151 10.7316385,21 12,21 C13.2718281,21 14.4427365,20.4036348 15.194985,19.4071443 C15.5277359,18.966355 16.1548143,18.8787725 16.5956036,19.2115234 C16.8519166,19.4050135 16.988801,19.6980235 16.9930588,19.9960565 C18.9938794,19.907886 20.5742055,18.3357244 20.5742055,16.4285714 L20.5742055,16.4285714 L20.5742055,9.57142857 C20.5742055,7.73328822 19.1061821,6.20633378 17.2073996,6.01925407 C17.7120147,6.89729663 18,7.91501702 18,9 C18,9.55228475 17.5522847,10 17,10 C16.4477153,10 16,9.55228475 16,9 C16,8.01490624 15.6439009,7.11298389 15.0534058,6.41593621 L15.0307456,6.42648559 L14.9865289,6.33899032 C14.2539484,5.51737497 13.1873939,5 12,5 Z M7,12 C7.55228475,12 8,12.4477153 8,13 L8,13 L8,15 C8,15.5522847 7.55228475,16 7,16 C6.44771525,16 6,15.5522847 6,15 L6,15 L6,13 C6,12.4477153 6.44771525,12 7,12 Z M17,12 C17.5522847,12 18,12.4477153 18,13 L18,13 L18,15 C18,15.5522847 17.5522847,16 17,16 C16.4477153,16 16,15.5522847 16,15 L16,15 L16,13 C16,12.4477153 16.4477153,12 17,12 Z M11,11 C11.5522847,11 12,11.4477153 12,12 C12,12.5522847 11.5522847,13 11,13 C10.4477153,13 10,12.5522847 10,12 C10,11.4477153 10.4477153,11 11,11 Z M13,8 C13.5522847,8 14,8.44771525 14,9 C14,9.55228475 13.5522847,10 13,10 C12.4477153,10 12,9.55228475 12,9 C12,8.44771525 12.4477153,8 13,8 Z" id="Combined-Shape" fill="#000000" fill-rule="nonzero"></path>
    </g>
</svg>