<?xml version="1.0" encoding="UTF-8"?>
<svg width="24px" height="24px" viewBox="0 0 24 24" version="1.1" xmlns="http://www.w3.org/2000/svg" xmlns:xlink="http://www.w3.org/1999/xlink">
    <!-- Generator: Sketch 59.1 (86144) - https://sketch.com -->
    <title>ic_pumpkin</title>
    <desc>Created with Sketch.</desc>
    <g id="ic_pumpkin" stroke="none" stroke-width="1" fill="none" fill-rule="evenodd">
        <path d="M15,1 C15.5522847,1 16,1.44771525 16,2 C16,2.55228475 15.5522847,3 15,3 L15,3 L13.5,3 C13.3777084,3 13.265671,3.04390351 13.1787896,3.11680869 C14.0811865,3.2955114 14.9107136,3.67773679 15.6179181,4.21307166 C16.1256429,4.07229181 16.6560991,4 17.1965252,4 C20.3688517,4 22.9565401,6.48516715 22.9565401,9.57142857 L22.9565401,9.57142857 L22.9565401,16.4285714 C22.9565401,19.5148329 20.3688517,22 17.1965252,22 C16.6560303,22 16.1253387,21.9277036 15.6164045,21.7875576 C14.5941728,22.5617486 13.3330112,23 12,23 C10.6623829,23 9.39703311,22.5587252 8.37196389,21.7796572 C7.85398111,21.9245664 7.31211231,22 6.76001487,22 C3.58768837,22 1,19.5148329 1,16.4285714 L1,9.57142857 C1,6.48516715 3.58768837,4 6.76001487,4 C7.3115543,4 7.85270961,4.0752956 8.37071027,4.22094614 C9.13549218,3.63974745 10.0451948,3.23702219 11.0361702,3.0770041 C11.2359856,1.89827968 12.2630906,1 13.5,1 L13.5,1 Z M12,5 C9.790861,5 8,6.790861 8,9 C8,9.55228475 7.55228475,10 7,10 C6.44771525,10 6,9.55228475 6,9 C6,7.90756863 6.29195295,6.88332652 6.80209059,6.00104192 C6.78882866,6.00007676 6.77442824,6 6.76001487,6 C4.67457412,6 3,7.60822943 3,9.57142857 L3,16.4285714 C3,18.3917706 4.67457412,20 6.76001487,20 C6.84618203,20 6.93188903,19.9972574 7.0170359,19.9918146 C7.02309636,19.6991296 7.15890443,19.4132307 7.40986658,19.2228126 C7.84983909,18.8889823 8.47713017,18.9750276 8.81096042,19.4150001 C9.56357843,20.4069151 10.7316385,21 12,21 C13.2718281,21 14.4427365,20.4036348 15.194985,19.4071443 C15.5277359,18.966355 16.1548143,18.8787725 16.5956036,19.2115234 C16.8510546,19.4043628 16.9878789,19.6960537 16.9930113,19.9930496 L17.1965252,20 C19.281966,20 20.9565401,18.3917706 20.9565401,16.4285714 L20.9565401,16.4285714 L20.9565401,9.57142857 C20.9565401,7.60822943 19.281966,6 17.1965252,6 L17.1965252,6 L17.250444,6.09379483 C17.7280407,6.9547959 18,7.9456382 18,9 C18,9.55228475 17.5522847,10 17,10 C16.4477153,10 16,9.55228475 16,9 C16,6.790861 14.209139,5 12,5 Z M7,12 C7.55228475,12 8,12.4477153 8,13 L8,13 L8,15 C8,15.5522847 7.55228475,16 7,16 C6.44771525,16 6,15.5522847 6,15 L6,15 L6,13 C6,12.4477153 6.44771525,12 7,12 Z M17,12 C17.5522847,12 18,12.4477153 18,13 L18,13 L18,15 C18,15.5522847 17.5522847,16 17,16 C16.4477153,16 16,15.5522847 16,15 L16,15 L16,13 C16,12.4477153 16.4477153,12 17,12 Z M11,11 C11.5522847,11 12,11.4477153 12,12 C12,12.5522847 11.5522847,13 11,13 C10.4477153,13 10,12.5522847 10,12 C10,11.4477153 10.4477153,11 11,11 Z M13,8 C13.5522847,8 14,8.44771525 14,9 C14,9.55228475 13.5522847,10 13,10 C12.4477153,10 12,9.55228475 12,9 C12,8.44771525 12.4477153,8 13,8 Z" id="Combined-Shape" fill="#000000" fill-rule="nonzero"></path>
    </g>
</svg>