<?xml version="1.0" encoding="UTF-8"?>
<svg width="24px" height="24px" viewBox="0 0 24 24" version="1.1" xmlns="http://www.w3.org/2000/svg" xmlns:xlink="http://www.w3.org/1999/xlink">
    <!-- Generator: Sketch 59.1 (86144) - https://sketch.com -->
    <title>ic_witch_hat</title>
    <desc>Created with Sketch.</desc>
    <g id="ic_witch_hat" stroke="none" stroke-width="1" fill="none" fill-rule="evenodd">
        <path d="M2,23 C1.44771525,23 1,22.5522847 1,22 C1,21.4477153 1.44771525,21 2,21 L2,21 L3,20.999316 L3,18 C3,17.4477153 3.44771525,17 4,17 L4.356,16.999316 L9.09396298,6.59501995 C9.15126686,6.4691615 9.23405236,6.35655652 9.3370887,6.2643199 L14.9330196,1.25492475 C15.645806,0.616848779 16.7615874,1.2477233 16.5822775,2.18743253 L15.476655,7.98166717 L19.639,16.999316 L20,17 C20.5522847,17 21,17.4477153 21,18 L21,20.999316 L22,21 C22.5128358,21 22.9355072,21.3860402 22.9932723,21.8833789 L23,22 C23,22.5522847 22.5522847,23 22,23 L22,23 Z M13,18 L11,18 L11,20.999316 L13,20.999316 L13,18 Z M9,19 L5,19 L5,21 L9,21 L9,19 Z M19,19 L15,19 L15,21 L19,21 L19,19 Z M14.0633809,4.71770521 L10.8272847,7.61461094 L6.55407719,17 L9,17 C9,16.4477153 9.44771525,16 10,16 L14,16 C14.5522847,16 15,16.4477153 15,17 L17.4369621,17 L13.5263032,8.52856912 C13.4388359,8.33909399 13.4128385,8.12700165 13.4519538,7.92201057 L14.0633809,4.71770521 Z" id="Combined-Shape" fill="#000000" fill-rule="nonzero"></path>
    </g>
</svg>